<svg xmlns="http://www.w3.org/2000/svg" width="1706.667" height="1706.667" version="1.0" viewBox="0 0 1280 1280">
<path d="M378.6 153.3c-1.6 1.2-1.7 5.3-1.6 63.5l.1 62.2h-4.5c-7.3 0-9.1 3.2-8.4 14.9.5 10.1.5 10.1 17.4 10.1H396v119h-13.3c-12.7 0-13.5.1-15.5 2.3-1.9 2-2.2 3.5-2.2 11v8.7h-64.9l-2.1 2.9c-9.7 13.7-13.4 50.1-8.1 80.5 2.3 13.1 7.4 32.1 9.3 34.3.7.8 3.6 1.3 7.9 1.3h6.9v7.4c0 7.1.2 7.5 3.1 10 2.5 2.2 4.1 2.6 9 2.6h5.9v70h-6.8c-8.9 0-10.2 1.3-10.2 9.7 0 10.1 2.1 9.3-25.1 9.3-22.1 0-23.9.1-24.8 1.8-1.5 2.9-1.6 19.9-.1 21.7 1 1.2 4 1.5 15.1 1.5H294v100h-13.9c-17.5 0-17.1-.3-17.1 12.9 0 6.2.4 10.1 1.2 10.9.9.9 7.3 1.2 22.6 1.2 20 0 21.4.1 20.7 1.8-3.8 8.8-4 10-4 24.2 0 13.6.2 14.8 2.7 20.3l2.7 5.8-17-.2c-9.4-.1-17.5.3-18 .8s-1 30.1-1.1 71.3l-.3 70.5-23 .3c-20.2.2-23.2.4-24.2 1.9-.9 1.1-1.3 5.3-1.3 11.9 0 12.8.6 13.4 12.2 13.4h7.8v106h-8.8c-11.9 0-12.7.6-12.7 10.3 0 6 .4 7.9 1.9 9.6l1.9 2.1H1052l3.9-3.9c7.2-7.2 13.1-23.5 16.2-44.2 1.9-12.7 1.6-44.2-.5-57.4-3.5-21.9-10.1-40.4-16.7-46.6-3.1-2.9-3.3-2.9-14.5-2.9H1029v-6.9c0-3.8-.4-8.1-1-9.5-.9-2.5-1.2-2.5-11.2-2.8l-10.3-.3-.3-49.3-.2-49.2h7.1c5.5 0 7.9-.5 10.5-2.1l3.4-2.1V887c0-11.8-.3-12-16.2-12H999v-6.4c0-5.8-.3-6.7-2.6-8.5-2-1.5-4.1-2.1-8-2.1H983v-20h6c8.3 0 10-1.8 10-10.4 0-9.8.8-9.6-30.3-9.6h-25.9l2.1-3.2c22.5-34.2 23.9-83.6 3.6-126.6-2.4-5.1-5.3-10.6-6.5-12.2l-2.1-3-26.5-.2c-14.5-.2-26.4-.6-26.4-1.1V564h37.9c33.2 0 38.2-.2 39.5-1.6 2.3-2.2 2.3-20.6.1-22.4-1-.8-5-1.3-10.8-1.4l-9.2-.1-.3-33.3-.2-33.2h8.9c12.2 0 13.1-.9 13.1-13.5 0-6.6-.4-9.7-1.6-11.3l-1.5-2.2h-71.4l.3-81c.2-80 .2-81-1.8-83-1.9-1.9-3.3-2-23.9-2h-21.8l-.5-10.9c-.3-6.9-.9-11.5-1.7-12.5-.9-1-3-1.6-5.7-1.6H832v-73.9l5.2-.3c6.9-.4 7.8-2.1 7.8-15 0-8.9-.2-9.8-2.2-11.2-2-1.4-25.7-1.6-232.3-1.6-185.4 0-230.5.2-231.9 1.3zM823 186.5v6.5h-94.4c-84.5 0-94.6.2-96 1.6-1.9 1.8-2.1 4.5-.4 6.2.9.9 23.6 1.2 96 1.2H823v23h-40.3c-30 0-40.6.3-41.5 1.2-1.9 1.9-1.4 4.5 1 6.2 1.9 1.4 7.6 1.6 41.5 1.6H823v20H426v-74h397v6.5zm59 176.7v75.3l-254-.3-254-.2v-6h246.6c185.9.1 246.9-.2 248-1.1 1.2-1 1.4-11.8 1.4-67.3 0-50.2-.3-66.5-1.2-67.4-.9-.9-57.4-1.2-248-1.2H374v-7h508v75.2zm-21 .3V423H405v-17h22.9c12.6 0 23.7-.3 24.5-.6 2.6-1 3.8-4.1 2.6-6.4-1-1.9-2.1-2-25.5-2H405v-53h82.3c62.7 0 82.6-.3 83.5-1.2 1.9-1.9 1.4-4.5-1-6.2-2-1.4-11.6-1.6-83.5-1.6H405v-31h456v59.5zm-507 90.9c0 .2-1.5 3.6-3.4 7.7-6.1 13.4-7.1 19.1-7.1 40.9.1 23.8 1.2 29.3 10.2 50.8.4 1-4.5 1.2-23.8 1l-24.3-.3-1.8-6c-5.8-18.9-8.5-43.7-6.9-61.9 1.1-12 3.8-24.2 6.7-29.7l1.5-2.9h24.4c13.5 0 24.5.2 24.5.4zm175.8.3c-6.7 13.3-9.2 21.5-10.9 35.6-2 17.4 1 40.2 7.5 56.4l3.3 8.3H387l-1.4-2.3c-2.3-3.6-6.4-14.5-8.7-23.2-2.6-10.1-3.6-32-2-42.4 1.6-10.3 5.5-21.6 9.7-27.9l3.4-5.2h71.1c39.1 0 70.9.3 70.7.7zm427.2 3.8v4.5H793.4c-110.8 0-164.2.3-165.5 1-1.8 1-1.9 2.5-1.9 41v39.9l3 1.6c2.6 1.3 21.7 1.5 165.5 1.5H957v7H562.3l-3-6.8c-6.6-14.6-9.4-27.5-9.4-44.8-.1-20.5 3.8-35.5 11.8-46.2l2.4-3.2H957v4.5zM935 478v6h-83.3c-63.5 0-83.6.3-84.5 1.2-.7.7-1.2 2.1-1.2 3.3 0 1.2.5 2.6 1.2 3.3.9.9 21 1.2 84.5 1.2H935v14H705l-1.2 2.6c-1.1 2.3-1 2.9 1.1 4.5 2.2 1.8 6.2 1.9 116.2 1.9H935v22.5H635V472h300v6zm-406.3 16.2c-.3.8-.6.5-.6-.6-.1-1.1.2-1.7.5-1.3.3.3.4 1.2.1 1.9zm11 11.5c-.2 2.1-.4.6-.4-3.2 0-3.9.2-5.5.4-3.8.2 1.8.2 5 0 7zm-187-.5c-.2 1.8-.4.6-.4-2.7 0-3.3.2-4.8.4-3.3s.2 4.2 0 6zm176 7c-.3.8-.6.5-.6-.6-.1-1.1.2-1.7.5-1.3.3.3.4 1.2.1 1.9zM877 618v50H324v-5h262.9c237.7 0 263.1-.2 264.5-1.6 1.4-1.3 1.6-6.6 1.6-42.2 0-22.4-.4-41.3-.9-42-.4-.7-2.6-1.8-4.7-2.2-2.3-.6-112.7-1-264.1-1H323v-6h554v50zm-33 1v35H341v-32h136.3c104.7 0 136.6-.3 137.5-1.2 1.8-1.8 1.4-5.6-.7-6.8-1.3-.7-46-1-137.5-1H341v-12h98.4c88.2 0 98.6-.2 100-1.6 2-2 2-3.3-.1-5.6-1.5-1.7-5.9-1.8-100-1.8H341v-8h503v35zm95.3 71.4c9.5 19 14 38.2 14 60.1 0 22.8-4.7 41.3-14.5 56.8l-4.3 6.7H272v-7h371l4.5-6.8c14.9-22.1 16.8-65.6 4.4-98.3-1.6-4.2-4-8.8-5.4-10.3l-2.4-2.6H273v-7l331.2.2 331.2.3 3.9 7.9zm-296.8 13.1c11.8 26.6 10.8 71.3-2 90.6L638 798H303v-8h56.3c42.5 0 56.6-.3 57.5-1.2 1.8-1.8 1.4-5.6-.7-6.8-1.3-.6-21.1-1-57.5-1H303v-45h34.9c20.3 0 36-.4 37.5-1 2.8-1 3.5-4.7 1.4-6.8-.9-.9-10.6-1.2-37.5-1.2H303v-9h138.4c124.5 0 138.6-.2 140-1.6 2-1.9 2-2.4 0-5.2l-1.5-2.2H303v-11h337.1l2.4 5.5zM974 840c0 2-.7 2-45.6 2-29.5 0-46.2.4-47.5 1-2.1 1.2-2.5 5-.7 6.8.9.9 12.8 1.2 47.5 1.2H974v7l-203.7-.2-203.8-.3-.3-9.8-.3-9.7H770c203.3 0 204 0 204 2zm43.7 47.7c-.3 1-.5.4-.5-1.2 0-1.7.2-2.4.5-1.8.2.7.2 2.1 0 3zm-735 92.5c-.1 17.2-.2 3.2-.2-31.2s.1-48.4.2-31.3c.2 17.2.2 45.4 0 62.5zM997 909.5v9.5H861.3c-124.8 0-135.8.1-137.5 1.7-2.2 2-2.3 3.7-.2 5.7 1.4 1.4 15.2 1.6 137.5 1.6H997v12h-38.1c-22.7 0-38.8.4-39.8 1-2.5 1.3-3.3 3.7-2.1 6.1 1 1.8 2.6 1.9 40.5 1.9H997v50H639v-99h358v9.5zm-410.2 44.7-.3 40.3h-146l-.3-40.3-.2-40.2h147l-.2 40.2zm-203.5-37c-.2.5-.3 17.9-.3 38.8v38h-74v-78l37.3.2c20.4.2 37.1.6 37 1zm396.2 113.6c6.1 9.3 10.4 28 11.2 49.3 1.2 29.9-5 60.7-15.8 78.5l-3.3 5.4H501.2c-256.9 0-270.3-.1-270-1.8.3-1.6 10.9-1.7 202.9-2 191.4-.2 202.7-.3 204.1-2 3.6-4.3 8.2-19 11.5-37.2 2.5-13.8 2.5-48.4 0-59.8-2.2-10.1-5-17.9-8-22.2l-2.2-3.1H436.3l-203.3.1v-9h544l2.5 3.8zm171.9 3.4c6.7 13.6 9.6 29.7 9.6 53 0 25.9-4.5 48.1-13.3 65.8l-5.2 10.5-64.2.3-64.1.2 2.8-5.2c1.6-2.9 4.3-9.5 6-14.5 11.9-35.8 11.7-84.1-.6-111.9l-2.4-5.4h127.9l3.5 7.2zm100.2-2.6c14.1 24 17.2 81.8 6.3 114.9-1.7 4.9-4.3 10.8-5.8 13l-2.7 4-32.2.3c-17.7.1-32.2 0-32.2-.3s1.1-2.8 2.5-5.5c17.3-34.1 19.5-97.5 4.4-127.3l-1.9-3.7h58.9l2.7 4.6zM637 1049.2c4.1 9.5 5.5 20.2 5.4 41.3-.1 22.3-2.1 36.7-7.1 51.7l-2.8 8.3-189.7.3-189.8.2v-32h86.8c66.2 0 87.1-.3 88-1.2.7-.7 1.2-2.1 1.2-3.3 0-1.2-.5-2.6-1.2-3.3-.9-.9-21.8-1.2-88-1.2H253v-9h49.6c30.2 0 50.2-.4 51.3-1 2.5-1.3 3.3-3.7 2.1-6.1-1-1.8-2.7-1.9-52-1.9h-51v-28h95.6c63.9 0 96.2-.3 97.5-1 2.1-1.2 2.5-5 .7-6.8-.9-.9-23.9-1.2-97.5-1.2H253v-10h382.1l1.9 4.2z"/><path d="M692.4 692.3c-3.3 1.8-3.5 4.5-1 10.4 13.1 31.3 12.7 66.1-.9 88.7-3.9 6.6-4.2 7.8-1.9 10 1.4 1.4 12.5 1.6 107.4 1.6h105.8l3.1-2.9c4-3.7 9.5-15.4 12.1-25.6 5.4-21.3 2.6-50.7-7-73.8-1.7-4.2-3.3-7.8-3.3-7.9-.5-.7-213.1-1.2-214.3-.5zm210.8 16.9c5.3 14.7 7 26.4 6.5 43.8-.4 16.1-2 23.7-6.9 33.5-4.2 8.3 6.9 7.5-103.6 7.5-93.3 0-98.4-.1-97.7-1.8 6.6-15.2 8.6-25.3 8.6-42.7 0-14.3-2.1-27-6.5-41.1l-2.4-7.4 99.6.2 99.5.3 2.9 7.7z"/>
</svg>
